<svg xmlns="http://www.w3.org/2000/svg" width="500" height="500" viewBox="0 0 500 500"><g transform="translate(176,227)translate(130,32.5)rotate(0)translate(-130,-32.5)" opacity="1"><path transform="translate(6,0)rotate(0)" d="M18.91 47L17.95 47L16.36 44.56L16.36 44.56Q15.38 45.90 13.90 46.68L13.90 46.68L13.90 46.68Q12.42 47.47 10.66 47.47L10.66 47.47L9.94 47.47L9.94 47.47Q8.48 47.47 7.20 46.92L7.20 46.92L7.20 46.92Q5.91 46.37 4.95 45.41L4.95 45.41L4.95 45.41Q3.98 44.45 3.43 43.16L3.43 43.16L3.43 43.16Q2.88 41.87 2.88 40.41L2.88 40.41L2.88 23L5.77 23L5.77 40.58L5.77 40.58Q5.77 41.45 6.09 42.21L6.09 42.21L6.09 42.21Q6.42 42.97 6.98 43.53L6.98 43.53L6.98 43.53Q7.55 44.09 8.31 44.42L8.31 44.42L8.31 44.42Q9.07 44.75 9.94 44.75L9.94 44.75L11.86 44.75L11.86 44.75Q12.73 44.75 13.49 44.42L13.49 44.42L13.49 44.42Q14.25 44.09 14.81 43.53L14.81 43.53L14.81 43.53Q15.38 42.97 15.70 42.21L15.70 42.21L15.70 42.21Q16.03 41.45 16.03 40.58L16.03 40.58L16.03 23L18.91 23L18.91 47ZM40.71 40.41L40.71 40.41L40.71 40.41Q40.71 41.87 40.16 43.16L40.16 43.16L40.16 43.16Q39.61 44.45 38.65 45.41L38.65 45.41L38.65 45.41Q37.69 46.37 36.40 46.92L36.40 46.92L36.40 46.92Q35.11 47.47 33.66 47.47L33.66 47.47L31.73 47.47L31.73 47.47Q30.28 47.47 28.99 46.92L28.99 46.92L28.99 46.92Q27.70 46.37 26.74 45.41L26.74 45.41L26.74 45.41Q25.78 44.45 25.23 43.16L25.23 43.16L25.23 43.16Q24.68 41.87 24.68 40.41L24.68 40.41L24.68 13.39L27.56 13.39L27.56 25.02L27.56 25.02Q28.55 23.84 29.93 23.19L29.93 23.19L29.93 23.19Q31.31 22.53 32.93 22.53L32.93 22.53L33.66 22.53L33.66 22.53Q35.11 22.53 36.40 23.08L36.40 23.08L36.40 23.08Q37.69 23.63 38.65 24.59L38.65 24.59L38.65 24.59Q39.61 25.55 40.16 26.84L40.16 26.84L40.16 26.84Q40.71 28.13 40.71 29.59L40.71 29.59L40.71 40.41ZM37.83 40.58L37.83 29.42L37.83 29.42Q37.83 28.55 37.50 27.79L37.50 27.79L37.50 27.79Q37.17 27.03 36.61 26.47L36.61 26.47L36.61 26.47Q36.05 25.91 35.29 25.58L35.29 25.58L35.29 25.58Q34.52 25.25 33.66 25.25L33.66 25.25L31.73 25.25L31.73 25.25Q30.87 25.25 30.11 25.58L30.11 25.58L30.11 25.58Q29.34 25.91 28.78 26.47L28.78 26.47L28.78 26.47Q28.22 27.03 27.89 27.79L27.89 27.79L27.89 27.79Q27.56 28.55 27.56 29.42L27.56 29.42L27.56 40.58L27.56 40.58Q27.56 41.45 27.89 42.21L27.89 42.21L27.89 42.21Q28.22 42.97 28.78 43.53L28.78 43.53L28.78 43.53Q29.34 44.09 30.11 44.42L30.11 44.42L30.11 44.42Q30.87 44.75 31.73 44.75L31.73 44.75L33.66 44.75L33.66 44.75Q34.52 44.75 35.29 44.42L35.29 44.42L35.29 44.42Q36.05 44.09 36.61 43.53L36.61 43.53L36.61 43.53Q37.17 42.97 37.50 42.21L37.50 42.21L37.50 42.21Q37.83 41.45 37.83 40.58L37.83 40.58ZM62.51 40.41L62.51 40.41L62.51 40.41Q62.51 41.87 61.96 43.16L61.96 43.16L61.96 43.16Q61.41 44.45 60.45 45.41L60.45 45.41L60.45 45.41Q59.48 46.37 58.20 46.92L58.20 46.92L58.20 46.92Q56.91 47.47 55.45 47.47L55.45 47.47L53.53 47.47L53.53 47.47Q52.08 47.47 50.79 46.92L50.79 46.92L50.79 46.92Q49.50 46.37 48.54 45.41L48.54 45.41L48.54 45.41Q47.58 44.45 47.03 43.16L47.03 43.16L47.03 43.16Q46.48 41.87 46.48 40.41L46.48 40.41L46.48 29.59L46.48 29.59Q46.48 28.13 47.03 26.84L47.03 26.84L47.03 26.84Q47.58 25.55 48.54 24.59L48.54 24.59L48.54 24.59Q49.50 23.63 50.79 23.08L50.79 23.08L50.79 23.08Q52.08 22.53 53.53 22.53L53.53 22.53L55.45 22.53L55.45 22.53Q56.91 22.53 58.20 23.08L58.20 23.08L58.20 23.08Q59.48 23.63 60.45 24.59L60.45 24.59L60.45 24.59Q61.41 25.55 61.96 26.84L61.96 26.84L61.96 26.84Q62.51 28.13 62.51 29.59L62.51 29.59L62.51 40.41ZM59.63 40.58L59.63 29.42L59.63 29.42Q59.63 28.55 59.30 27.79L59.30 27.79L59.30 27.79Q58.97 27.03 58.41 26.47L58.41 26.47L58.41 26.47Q57.84 25.91 57.08 25.58L57.08 25.58L57.08 25.58Q56.32 25.25 55.45 25.25L55.45 25.25L53.53 25.25L53.53 25.25Q52.66 25.25 51.90 25.58L51.90 25.58L51.90 25.58Q51.14 25.91 50.58 26.47L50.58 26.47L50.58 26.47Q50.02 27.03 49.69 27.79L49.69 27.79L49.69 27.79Q49.36 28.55 49.36 29.42L49.36 29.42L49.36 40.58L49.36 40.58Q49.36 41.45 49.69 42.21L49.69 42.21L49.69 42.21Q50.02 42.97 50.58 43.53L50.58 43.53L50.58 43.53Q51.14 44.09 51.90 44.42L51.90 44.42L51.90 44.42Q52.66 44.75 53.53 44.75L53.53 44.75L55.45 44.75L55.45 44.75Q56.32 44.75 57.08 44.42L57.08 44.42L57.08 44.42Q57.84 44.09 58.41 43.53L58.41 43.53L58.41 43.53Q58.97 42.97 59.30 42.21L59.30 42.21L59.30 42.21Q59.63 41.45 59.63 40.58L59.63 40.58ZM84.30 47L81.42 47L81.42 29.42L81.42 29.42Q81.42 28.55 81.09 27.79L81.09 27.79L81.09 27.79Q80.77 27.03 80.20 26.47L80.20 26.47L80.20 26.47Q79.64 25.91 78.88 25.58L78.88 25.58L78.88 25.58Q78.12 25.25 77.25 25.25L77.25 25.25L75.33 25.25L75.33 25.25Q74.46 25.25 73.70 25.58L73.70 25.58L73.70 25.58Q72.94 25.91 72.38 26.47L72.38 26.47L72.38 26.47Q71.81 27.03 71.48 27.79L71.48 27.79L71.48 27.79Q71.16 28.55 71.16 29.42L71.16 29.42L71.16 47L68.27 47L68.27 23L69.23 23L70.80 25.44L70.80 25.44Q71.79 24.10 73.28 23.32L73.28 23.32L73.28 23.32Q74.77 22.53 76.52 22.53L76.52 22.53L77.25 22.53L77.25 22.53Q78.70 22.53 79.99 23.08L79.99 23.08L79.99 23.08Q81.28 23.63 82.24 24.59L82.24 24.59L82.24 24.59Q83.20 25.55 83.75 26.84L83.75 26.84L83.75 26.84Q84.30 28.13 84.30 29.59L84.30 29.59L84.30 47ZM106.10 40.41L106.10 40.41L106.10 40.41Q106.10 41.87 105.55 43.16L105.55 43.16L105.55 43.16Q105 44.45 104.04 45.41L104.04 45.41L104.04 45.41Q103.08 46.37 101.79 46.92L101.79 46.92L101.79 46.92Q100.50 47.47 99.05 47.47L99.05 47.47L97.13 47.47L97.13 47.47Q95.67 47.47 94.38 46.92L94.38 46.92L94.38 46.92Q93.09 46.37 92.13 45.41L92.13 45.41L92.13 45.41Q91.17 44.45 90.62 43.16L90.62 43.16L90.62 43.16Q90.07 41.87 90.07 40.41L90.07 40.41L90.07 29.59L90.07 29.59Q90.07 28.13 90.62 26.84L90.62 26.84L90.62 26.84Q91.17 25.55 92.13 24.59L92.13 24.59L92.13 24.59Q93.09 23.63 94.38 23.08L94.38 23.08L94.38 23.08Q95.67 22.53 97.13 22.53L97.13 22.53L99.05 22.53L99.05 22.53Q100.50 22.53 101.79 23.08L101.79 23.08L101.79 23.08Q103.08 23.63 104.04 24.59L104.04 24.59L104.04 24.59Q105 25.55 105.55 26.84L105.55 26.84L105.55 26.84Q106.10 28.13 106.10 29.59L106.10 29.59L106.10 35.23L92.95 35.23L92.95 40.58L92.95 40.58Q92.95 41.45 93.28 42.21L93.28 42.21L93.28 42.21Q93.61 42.97 94.17 43.53L94.17 43.53L94.17 43.53Q94.73 44.09 95.50 44.42L95.50 44.42L95.50 44.42Q96.26 44.75 97.13 44.75L97.13 44.75L99.05 44.75L99.05 44.75Q99.91 44.75 100.68 44.42L100.68 44.42L100.68 44.42Q101.44 44.09 102 43.53L102 43.53L102 43.53Q102.56 42.97 102.89 42.21L102.89 42.21L102.89 42.21Q103.22 41.45 103.22 40.58L103.22 40.58L103.22 38.98L106.10 39.45L106.10 40.41ZM103.22 32.98L103.22 29.42L103.22 29.42Q103.22 28.55 102.89 27.79L102.89 27.79L102.89 27.79Q102.56 27.03 102 26.47L102 26.47L102 26.47Q101.44 25.91 100.68 25.58L100.68 25.58L100.68 25.58Q99.91 25.25 99.05 25.25L99.05 25.25L97.13 25.25L97.13 25.25Q96.26 25.25 95.50 25.58L95.50 25.58L95.50 25.58Q94.73 25.91 94.17 26.47L94.17 26.47L94.17 26.47Q93.61 27.03 93.28 27.79L93.28 27.79L93.28 27.79Q92.95 28.55 92.95 29.42L92.95 29.42L92.95 32.98L103.22 32.98ZM142.78 38.75L142.78 38.75L142.78 38.75Q142.78 40.46 142.14 41.96L142.14 41.96L142.14 41.96Q141.49 43.46 140.37 44.59L140.37 44.59L140.37 44.59Q139.24 45.71 137.73 46.36L137.73 46.36L137.73 46.36Q136.22 47 134.51 47L134.51 47L123.87 47L123.87 13.39L134.51 13.39L134.51 13.39Q136.22 13.39 137.73 14.04L137.73 14.04L137.73 14.04Q139.24 14.68 140.37 15.80L140.37 15.80L140.37 15.80Q141.49 16.93 142.14 18.44L142.14 18.44L142.14 18.44Q142.78 19.95 142.78 21.66L142.78 21.66L142.78 21.99L142.78 21.99Q142.78 23.19 142.46 24.28L142.46 24.28L142.46 24.28Q142.15 25.37 141.56 26.30L141.56 26.30L141.56 26.30Q140.98 27.24 140.18 28.00L140.18 28.00L140.18 28.00Q139.38 28.77 138.40 29.28L138.40 29.28L138.40 29.28Q139.38 29.80 140.18 30.56L140.18 30.56L140.18 30.56Q140.98 31.32 141.56 32.27L141.56 32.27L141.56 32.27Q142.15 33.22 142.46 34.31L142.46 34.31L142.46 34.31Q142.78 35.40 142.78 36.59L142.78 36.59L142.78 38.75ZM139.76 38.75L139.76 36.10L139.76 36.10Q139.76 34.98 139.34 34.00L139.34 34.00L139.34 34.00Q138.91 33.03 138.18 32.30L138.18 32.30L138.18 32.30Q137.44 31.58 136.46 31.16L136.46 31.16L136.46 31.16Q135.49 30.73 134.37 30.73L134.37 30.73L126.89 30.73L126.89 44.12L134.37 44.12L134.37 44.12Q135.49 44.12 136.46 43.70L136.46 43.70L136.46 43.70Q137.44 43.27 138.18 42.55L138.18 42.55L138.18 42.55Q138.91 41.82 139.34 40.85L139.34 40.85L139.34 40.85Q139.76 39.88 139.76 38.75L139.76 38.75ZM139.76 22.46L139.76 21.66L139.76 21.66Q139.76 20.54 139.34 19.57L139.34 19.57L139.34 19.57Q138.91 18.59 138.18 17.86L138.18 17.86L138.18 17.86Q137.44 17.12 136.46 16.70L136.46 16.70L136.46 16.70Q135.49 16.27 134.37 16.27L134.37 16.27L126.89 16.27L126.89 27.85L134.37 27.85L134.37 27.85Q135.49 27.85 136.46 27.43L136.46 27.43L136.46 27.43Q137.44 27.01 138.18 26.27L138.18 26.27L138.18 26.27Q138.91 25.53 139.34 24.56L139.34 24.56L139.34 24.56Q139.76 23.59 139.76 22.46L139.76 22.46ZM166.97 39.22L166.97 39.22L166.97 39.22Q166.97 40.93 166.32 42.43L166.32 42.43L166.32 42.43Q165.68 43.93 164.55 45.05L164.55 45.05L164.55 45.05Q163.43 46.18 161.93 46.82L161.93 46.82L161.93 46.82Q160.43 47.47 158.72 47.47L158.72 47.47L156.33 47.47L156.33 47.47Q154.62 47.47 153.11 46.82L153.11 46.82L153.11 46.82Q151.59 46.18 150.47 45.05L150.47 45.05L150.47 45.05Q149.34 43.93 148.70 42.43L148.70 42.43L148.70 42.43Q148.05 40.93 148.05 39.22L148.05 39.22L148.05 21.17L148.05 21.17Q148.05 19.46 148.70 17.96L148.70 17.96L148.70 17.96Q149.34 16.46 150.47 15.34L150.47 15.34L150.47 15.34Q151.59 14.21 153.11 13.57L153.11 13.57L153.11 13.57Q154.62 12.92 156.33 12.92L156.33 12.92L158.72 12.92L158.72 12.92Q160.43 12.92 161.93 13.57L161.93 13.57L161.93 13.57Q163.43 14.21 164.55 15.34L164.55 15.34L164.55 15.34Q165.68 16.46 166.32 17.96L166.32 17.96L166.32 17.96Q166.97 19.46 166.97 21.17L166.97 21.17L166.97 39.22ZM163.95 39.22L163.95 21.17L163.95 21.17Q163.95 20.05 163.52 19.07L163.52 19.07L163.52 19.07Q163.10 18.10 162.38 17.38L162.38 17.38L162.38 17.38Q161.65 16.65 160.68 16.23L160.68 16.23L160.68 16.23Q159.70 15.80 158.58 15.80L158.58 15.80L156.47 15.80L156.47 15.80Q155.34 15.80 154.37 16.23L154.37 16.23L154.37 16.23Q153.40 16.65 152.66 17.38L152.66 17.38L152.66 17.38Q151.92 18.10 151.50 19.07L151.50 19.07L151.50 19.07Q151.08 20.05 151.08 21.17L151.08 21.17L151.08 39.22L151.08 39.22Q151.08 40.34 151.50 41.32L151.50 41.32L151.50 41.32Q151.92 42.29 152.66 43.03L152.66 43.03L152.66 43.03Q153.40 43.77 154.37 44.19L154.37 44.19L154.37 44.19Q155.34 44.61 156.47 44.61L156.47 44.61L158.58 44.61L158.58 44.61Q159.70 44.61 160.68 44.19L160.68 44.19L160.68 44.19Q161.65 43.77 162.38 43.03L162.38 43.03L162.38 43.03Q163.10 42.29 163.52 41.32L163.52 41.32L163.52 41.32Q163.95 40.34 163.95 39.22L163.95 39.22ZM191.65 13.39L183.02 30.92L183.02 47L180 47L180 30.97L171.30 13.39L174.56 13.39L181.48 27.36L188.39 13.39L191.65 13.39ZM211.29 47L209.06 39.17L198.42 39.17L196.22 47L193.08 47L202.92 13.39L204.52 13.39L214.41 47L211.29 47ZM203.65 20.80L199.24 36.29L208.27 36.29L203.84 20.80L203.74 19.55L203.65 20.80ZM238.88 47L235.13 47L222.47 30.20L235.13 13.39L238.88 13.39L225.96 30.20L238.88 47ZM221.74 47L218.72 47L218.72 13.39L221.74 13.39L221.74 47ZM246.70 47L243.68 47L243.68 13.39L246.70 13.39L246.70 47Z" fill="#1bd77f"/></g><g transform="translate(71,199)translate(55.5,55)rotate(0)translate(-55.5,-55) scale(1.258829467319014,1.258829467319014)" opacity="1"><defs class="defs"/><path transform="translate(-6.099178122158943,-6.916607640411987)" d="M68.597,10.046c-7.876,-5.107 -17.437,-2.925 -25.97,-0.729c-9.436,2.428 -18.66,6.434 -25.561,13.497c-12.215,12.5 -13.718,34.586 -7.023,50.216c7.164,16.724 24.931,22.619 41.998,20.683c8.9,-1.01 17.98,-3.607 24.978,-9.405c7.284,-6.035 12.479,-14.59 15.174,-23.607c2.916,-9.756 2.956,-20.551 -1.063,-30.002c-3.485,-8.194 -10.839,-16.198 -20.481,-14.558c-2.008,0.342 -1.471,3.459 0.47,3.476c18.935,0.166 21.283,26.612 17.363,40.061c-4.904,16.822 -17.533,27.885 -34.606,31.13c-15.428,2.931 -32.699,-0.492 -40.821,-15.232c-7.331,-13.306 -7.487,-34.44 1.362,-47.05c5.672,-8.084 14.371,-13.24 23.612,-16.298c9.095,-3.01 21.407,-6.658 30.403,-1.899c0.186,0.099 0.342,-0.168 0.165,-0.283zM24.151,41.753c0.178,-2.938 0.459,-5.881 0.781,-8.807c-0.391,0.391 -0.781,0.781 -1.172,1.172c7.343,0.02 14.642,0.625 21.975,0.976c3.329,0.159 6.659,0.33 9.989,0.478c3.87,0.172 8.655,-0.551 12.386,0.44c-0.694,-0.694 -1.388,-1.388 -2.083,-2.083c1.026,2.552 0.627,4.524 2.723,6.53c0.885,0.847 2.655,0.824 3.239,-0.417c1.167,-2.48 1.241,-6.479 -0.746,-8.711c-2.518,-2.829 -9.29,-1.421 -12.523,-1.311c-11.661,0.396 -23.295,1.664 -34.96,1.755c-0.685,0.005 -1.102,0.536 -1.172,1.172c-0.33,3.001 -0.317,5.808 -0.031,8.807c0.097,1.011 1.531,1.036 1.594,-0.001zM45.527,34.05c-1.358,6.446 -0.92,13.829 -0.715,20.393c0.23,7.364 0.662,14.718 1.252,22.062c0.247,3.08 5.138,3.019 4.781,0c-0.866,-7.338 -1.577,-14.69 -2.083,-22.062c-0.457,-6.661 -0.344,-13.885 -1.789,-20.393c-0.158,-0.71 -1.295,-0.72 -1.446,0zM43.225,79.839c1.666,0.371 3.451,0.235 5.153,0.275c1.777,0.042 3.638,0.29 5.377,-0.11c1.099,-0.252 0.74,-1.743 -0.249,-1.842c-1.618,-0.16 -3.321,0.298 -4.926,0.539c-1.768,0.266 -3.674,0.353 -5.355,0.957c-0.081,0.03 -0.097,0.16 0,0.181z" fill="#1bd77f" class="fill c1"/></g></svg>