<svg xmlns="http://www.w3.org/2000/svg" width="450" height="150" viewBox="0 0 450 150"><g transform="translate(89,5)translate(184.5,82.5)rotate(0)translate(-184.5,-82.5)" opacity="1"><path transform="translate(6,0)rotate(0)" d="M146.70 49.35L146.70 49.35L146.70 49.35Q145.65 55.20 145.06 59.73L145.06 59.73L145.06 59.73Q144.47 64.25 144.47 68.98L144.47 68.98L144.47 68.98Q144.47 73.71 145.39 75.74L145.39 75.74L145.39 75.74Q140.34 74.43 138.43 71.70L138.43 71.70L138.43 71.70Q136.53 68.98 136.53 63.99L136.53 63.99L136.53 63.99Q136.53 59.59 137.91 51.95L137.91 51.95L137.91 51.95Q139.28 44.30 139.68 41.61L139.68 41.61L139.68 41.61Q136.27 42.20 132.39 43.91L132.39 43.91L132.39 43.91Q132.26 42.46 132.26 41.74L132.26 41.74L132.26 41.74Q132.26 38.26 134.36 36.98L134.36 36.98L134.36 36.98Q136.46 35.70 140.40 35.64L140.40 35.64L140.40 35.64Q140.86 30.71 140.86 28.55L140.86 28.55L140.86 28.55Q140.86 26.38 140.83 24.94L140.83 24.94L140.83 24.94Q140.79 23.49 140.79 22.77L140.79 22.77L140.79 22.77Q145.13 23.23 147.10 25.36L147.10 25.36L147.10 25.36Q149.06 27.50 149.06 31.44L149.06 31.44L149.06 31.44Q149.06 33.01 148.74 35.83L148.74 35.83L148.74 35.83Q154.25 35.70 156.81 33.67L156.81 33.67L156.81 33.67Q156.94 34.98 156.94 35.64L156.94 35.64L156.94 35.64Q156.94 38.79 155.83 40.00L155.83 40.00L155.83 40.00Q154.71 41.22 152.08 41.22L152.08 41.22L152.08 41.22Q149.46 41.22 148.08 41.15L148.08 41.15L148.08 41.15Q147.75 43.51 146.70 49.35ZM183.85 34.00L183.85 34.00L183.85 34.00Q187.27 34.00 189.04 35.24L189.04 35.24L189.04 35.24Q190.81 36.49 190.81 39.84L190.81 39.84L190.81 39.84Q190.81 40.89 189.56 49.06L189.56 49.06L189.56 49.06Q188.32 57.23 188.32 63.07L188.32 63.07L188.32 63.07Q188.32 68.91 189.56 73.38L189.56 73.38L189.56 73.38Q184.64 71.80 182.74 68.91L182.74 68.91L182.74 68.91Q180.83 66.03 180.83 61.76L180.83 61.76L180.83 61.76Q180.83 60.12 181.56 54.34L181.56 54.34L181.56 54.34Q179.52 61.83 175.35 66.91L175.35 66.91L175.35 66.91Q171.19 72 167.51 72L167.51 72L167.51 72Q159.96 72 159.96 61.10L159.96 61.10L159.96 61.10Q159.96 57.49 161.04 51.03L161.04 51.03L161.04 51.03Q162.13 44.56 162.13 41.22L162.13 41.22L162.13 41.22Q162.13 37.87 161.21 34.45L161.21 34.45L161.21 34.45Q166.66 34.45 169.12 35.87L169.12 35.87L169.12 35.87Q171.58 37.28 171.58 41.48L171.58 41.48L171.58 41.48Q171.58 43.71 170.20 50.34L170.20 50.34L170.20 50.34Q168.82 56.97 168.82 60.32L168.82 60.32L168.82 60.32Q168.82 65.17 171.45 65.17L171.45 65.17L171.45 65.17Q172.76 65.17 174.47 63.37L174.47 63.37L174.47 63.37Q176.17 61.56 177.75 58.58L177.75 58.58L177.75 58.58Q179.32 55.59 180.41 51.09L180.41 51.09L180.41 51.09Q181.49 46.60 181.49 41.97L181.49 41.97L181.49 41.97Q181.49 37.34 181.10 34.13L181.10 34.13L181.10 34.13Q183.07 34.00 183.85 34.00ZM204.53 9.18L204.53 9.18Q209.19 10.43 210.93 13.68L210.93 13.68L210.93 13.68Q212.67 16.93 212.67 20.87L212.67 20.87L212.67 20.87Q212.67 24.81 211.42 34.29L211.42 34.29L211.42 34.29Q210.17 43.78 209.71 49.42L209.71 49.42L209.71 49.42Q211.68 42.40 215.33 38.26L215.33 38.26L215.33 38.26Q218.97 34.13 223.17 34.13L223.17 34.13L223.17 34.13Q227.37 34.13 230.42 38.13L230.42 38.13L230.42 38.13Q233.48 42.13 233.48 48.37L233.48 48.37L233.48 48.37Q233.48 58.02 228.32 65.01L228.32 65.01L228.32 65.01Q223.17 72 216.54 72L216.54 72L216.54 72Q214.24 72 211.95 70.95L211.95 70.95L211.95 70.95Q214.77 70.16 217.07 67.73L217.07 67.73L217.07 67.73Q219.36 65.30 220.81 62.15L220.81 62.15L220.81 62.15Q223.76 55.59 223.76 49.03L223.76 49.03L223.76 49.03Q223.76 45.81 222.55 43.38L222.55 43.38L222.55 43.38Q221.33 40.95 219.30 40.95L219.30 40.95L219.30 40.95Q216.02 40.95 212.64 47.65L212.64 47.65L212.64 47.65Q209.26 54.34 209.06 64.32L209.06 64.32L209.06 65.57L209.06 65.57Q209.19 67.86 210.17 73.18L210.17 73.18L210.17 73.18Q200.72 71.02 200.72 59.59L200.72 59.59L200.72 59.59Q200.72 54.93 202.92 40.82L202.92 40.82L202.92 40.82Q205.12 26.71 205.12 20.21L205.12 20.21L205.12 20.21Q205.12 13.71 204.53 9.18L204.53 9.18ZM260.85 39.12L260.85 39.12L260.85 39.12Q256.58 39.12 253.23 44.86L253.23 44.86L253.23 44.86Q249.89 50.60 249.89 56.31L249.89 56.31L249.89 56.31Q249.89 68.26 256.06 68.26L256.06 68.26L256.06 68.26Q260.45 68.26 263.21 62.52L263.21 62.52L263.21 62.52Q265.97 56.77 265.97 49.62L265.97 49.62L265.97 49.62Q265.97 39.12 260.85 39.12ZM264.92 34.32L264.92 34.32L264.92 34.32Q268.86 34.32 271.61 38.20L271.61 38.20L271.61 38.20Q274.37 42.07 274.37 48.57L274.37 48.57L274.37 48.57Q274.37 55.85 271.42 61.96L271.42 61.96L271.42 61.96Q268.13 68.85 262.09 71.47L262.09 71.47L262.09 71.47Q258.68 72.98 254.61 72.98L254.61 72.98L254.61 72.98Q248.90 72.98 244.67 68.55L244.67 68.55L244.67 68.55Q240.43 64.12 240.43 55.82L240.43 55.82L240.43 55.82Q240.43 47.52 244.50 41.18L244.50 41.18L244.50 41.18Q248.57 34.85 255.27 33.21L255.27 33.21L255.27 33.21Q255.99 33.21 256.61 33.63L256.61 33.63L256.61 33.63Q257.24 34.06 257.24 34.52L257.24 34.52L257.24 34.52Q250.61 39.12 249.29 47.32L249.29 47.32L249.29 47.32Q250.67 43.64 252.68 40.95L252.68 40.95L252.68 40.95Q254.68 38.26 256.84 36.88L256.84 36.88L256.84 36.88Q260.98 34.32 264.92 34.32ZM307.06 34.13L307.06 34.13L307.06 34.13Q310.93 34.13 312.60 36.52L312.60 36.52L312.60 36.52Q314.28 38.92 314.28 43.02L314.28 43.02L314.28 43.02Q314.28 47.12 313.00 54.54L313.00 54.54L313.00 54.54Q311.72 61.96 311.72 65.34L311.72 65.34L311.72 65.34Q311.72 68.72 312.57 70.26L312.57 70.26L312.57 70.26Q313.42 71.80 315.46 72.92L315.46 72.92L315.46 72.92Q314.61 72.98 313.03 72.98L313.03 72.98L313.03 72.98Q307.52 72.98 305.19 71.28L305.19 71.28L305.19 71.28Q302.86 69.57 302.86 65.30L302.86 65.30L302.86 65.30Q302.86 62.88 304.17 55.82L304.17 55.82L304.17 55.82Q305.48 48.76 305.48 45.29L305.48 45.29L305.48 45.29Q305.48 40.95 302.86 40.95L302.86 40.95L302.86 40.95Q301.35 40.95 299.44 42.73L299.44 42.73L299.44 42.73Q297.54 44.50 295.77 47.55L295.77 47.55L295.77 47.55Q293.99 50.60 292.81 55.39L292.81 55.39L292.81 55.39Q291.63 60.19 291.63 64.94L291.63 64.94L291.63 64.94Q291.63 69.70 292.03 72L292.03 72L292.03 72Q289.93 72.13 289.27 72.13L289.27 72.13L289.27 72.13Q285.53 72.13 283.89 70.82L283.89 70.82L283.89 70.82Q282.25 69.51 282.25 66.49L282.25 66.49L282.25 66.49Q282.25 65.17 283.62 56.38L283.62 56.38L283.62 56.38Q285.00 47.58 285.00 42.36L285.00 42.36L285.00 42.36Q285.00 37.15 283.89 32.75L283.89 32.75L283.89 32.75Q288.68 34.26 290.58 37.05L290.58 37.05L290.58 37.05Q292.49 39.84 292.49 43.41L292.49 43.41L292.49 43.41Q292.49 46.99 291.70 51.72L291.70 51.72L291.70 51.72Q293.86 44.37 298.52 39.25L298.52 39.25L298.52 39.25Q303.18 34.13 307.06 34.13ZM337.84 55.85L337.84 55.85L337.84 55.85Q334.69 55.85 331.67 55.13L331.67 55.13L331.67 55.13Q331.61 55.79 331.61 57.17L331.61 57.17L331.61 57.17Q331.61 62.61 333.64 65.37L333.64 65.37L333.64 65.37Q335.68 68.13 338.50 68.13L338.50 68.13L338.50 68.13Q341.32 68.13 343.88 66.42L343.88 66.42L343.88 66.42Q346.44 64.71 348.34 61.69L348.34 61.69L348.34 61.69Q350.71 62.22 350.71 64.12L350.71 64.12L350.71 64.12Q344.93 72.98 335.81 72.98L335.81 72.98L335.81 72.98Q330.29 72.98 326.16 68.75L326.16 68.75L326.16 68.75Q322.02 64.52 322.02 56.97L322.02 56.97L322.02 56.97Q322.02 51.32 324.19 46.24L324.19 46.24L324.19 46.24Q326.35 41.15 331.08 37.64L331.08 37.64L331.08 37.64Q335.81 34.13 341.55 34.13L341.55 34.13L341.55 34.13Q347.29 34.13 349.98 36.75L349.98 36.75L349.98 36.75Q352.68 39.38 352.68 43.64L352.68 43.64L352.68 43.64Q352.68 49.81 348.38 52.83L348.38 52.83L348.38 52.83Q344.08 55.85 337.84 55.85ZM340.60 38.20L340.60 38.20L340.60 38.20Q337.25 38.20 334.95 42.33L334.95 42.33L334.95 42.33Q332.66 46.47 331.93 52.37L331.93 52.37L332.92 52.37L332.92 52.37Q338.63 52.37 341.35 49.42L341.35 49.42L341.35 49.42Q344.08 46.47 344.08 42.33L344.08 42.33L344.08 42.33Q344.08 40.62 343.19 39.41L343.19 39.41L343.19 39.41Q342.30 38.20 340.60 38.20Z" fill="#1bd77f"/><path transform="translate(62,69.75)rotate(0)" d="M6.37 58.77L6.37 58.77L6.37 58.77Q7.75 49.55 8.50 41.02L8.50 41.02L8.50 41.02Q9.26 32.49 9.26 25.53L9.26 25.53L9.26 25.53Q9.26 18.57 8.34 16.40L8.34 16.40L8.34 16.40Q15.36 18.24 17.13 22.18L17.13 22.18L17.13 22.18Q22.19 19.36 27.83 19.36L27.83 19.36L27.83 19.36Q33.48 19.36 37.05 22.54L37.05 22.54L37.05 22.54Q40.63 25.72 40.63 30.29L40.63 30.29L40.63 30.29Q40.63 34.85 37.35 38.75L37.35 38.75L37.35 38.75Q34.07 42.66 28.36 44.56L28.36 44.56L28.36 44.56Q32.95 45.55 36.79 48.99L36.79 48.99L36.79 48.99Q40.63 52.44 40.63 57.49L40.63 57.49L40.63 57.49Q40.63 65.24 34.89 69.41L34.89 69.41L34.89 69.41Q29.14 73.58 20.38 73.58L20.38 73.58L20.38 73.58Q11.62 73.58 4.92 68.52L4.92 68.52L4.92 68.52Q4.99 68.00 6.37 58.77ZM31.38 31.83L31.38 31.83Q31.38 28.88 29.54 26.87L29.54 26.87L29.54 26.87Q27.70 24.87 24.35 24.87L24.35 24.87L24.35 24.87Q21.00 24.87 17.92 26.25L17.92 26.25L17.92 26.25Q17.92 30.25 16.18 46.40L16.18 46.40L16.18 46.40Q14.44 62.55 14.44 67.08L14.44 67.08L14.44 67.08Q17.33 68.26 20.02 68.26L20.02 68.26L20.02 68.26Q24.68 68.26 27.70 65.17L27.70 65.17L27.70 65.17Q30.72 62.09 30.72 57.43L30.72 57.43L30.72 57.43Q30.72 52.77 27.57 49.65L27.57 49.65L27.57 49.65Q24.42 46.53 18.77 46.27L18.77 46.27L18.58 43.91L18.58 43.91Q24.61 43.05 27.99 39.48L27.99 39.48L27.99 39.48Q31.38 35.90 31.38 31.83L31.38 31.83ZM84.02 42.46L84.02 42.46Q84.02 33.27 81.49 29.14L81.49 29.14L81.49 29.14Q78.96 25.00 74.60 25.00L74.60 25.00L74.60 25.00Q70.23 25.00 66.33 28.84L66.33 28.84L66.33 28.84Q62.42 32.68 60.22 38.52L60.22 38.52L60.22 38.52Q58.02 44.37 58.02 50.34L58.02 50.34L58.02 50.34Q58.02 58.54 60.75 63.80L60.75 63.80L60.75 63.80Q63.47 69.05 68.99 69.05L68.99 69.05L68.99 69.05Q73.58 69.05 77.09 65.01L77.09 65.01L77.09 65.01Q80.60 60.97 82.31 55.00L82.31 55.00L82.31 55.00Q84.02 49.03 84.02 42.46L84.02 42.46ZM85.20 66.45L85.20 66.45L85.20 66.45Q82.25 69.70 77.81 71.67L77.81 71.67L77.81 71.67Q73.38 73.64 68.13 73.64L68.13 73.64L68.13 73.64Q62.88 73.64 58.91 71.28L58.91 71.28L58.91 71.28Q54.94 68.91 52.58 64.98L52.58 64.98L52.58 64.98Q47.85 57.10 47.85 46.60L47.85 46.60L47.85 46.60Q47.85 36.10 53.07 27.89L53.07 27.89L53.07 27.89Q58.29 19.69 67.02 17.52L67.02 17.52L67.02 17.52Q67.54 17.65 68.03 18.05L68.03 18.05L68.03 18.05Q68.53 18.44 68.59 18.90L68.59 18.90L68.59 18.90Q60.12 25.07 58.35 35.70L58.35 35.70L58.35 35.70Q61.11 27.96 66.66 23.59L66.66 23.59L66.66 23.59Q72.20 19.23 78.57 19.23L78.57 19.23L78.57 19.23Q84.94 19.23 89.43 24.71L89.43 24.71L89.43 24.71Q93.93 30.19 93.93 40.56L93.93 40.56L93.93 40.56Q93.93 50.73 90.12 58.87L90.12 58.87L90.12 58.87Q88.15 63.20 85.20 66.45ZM118.67 53.42L118.67 53.42L118.67 53.42Q117.62 62.29 117.62 67.08L117.62 67.08L117.62 67.08Q117.62 71.87 118.54 74.03L118.54 74.03L118.54 74.03Q112.96 72.59 110.93 70.19L110.93 70.19L110.93 70.19Q108.89 67.80 108.89 64.16L108.89 64.16L108.89 64.16Q108.89 60.51 109.88 53.75L109.88 53.75L109.88 53.75Q102.86 28.68 97.74 21.00L97.74 21.00L97.74 21.00Q100.43 19.29 103.38 19.29L103.38 19.29L103.38 19.29Q104.96 19.29 106.04 19.59L106.04 19.59L106.04 19.59Q107.12 19.88 108.17 20.93L108.17 20.93L108.17 20.93Q109.22 21.98 109.98 23.62L109.98 23.62L109.98 23.62Q110.73 25.27 111.65 28.42L111.65 28.42L111.65 28.42Q113.23 33.40 115.65 45.48L115.65 45.48L116.11 48.04L116.11 48.04Q122.15 38.66 125.93 30.32L125.93 30.32L125.93 30.32Q129.70 21.98 130.36 17.32L130.36 17.32L130.36 17.32Q135.28 20.08 135.28 24.77L135.28 24.77L135.28 24.77Q135.28 29.47 118.67 53.42ZM132.98 69.11L132.98 69.11L132.98 69.11Q132.98 67.86 136.79 59.79L136.79 59.79L136.79 59.79Q140.60 51.72 145.42 41.45L145.42 41.45L145.42 41.45Q150.25 31.17 151.95 26.51L151.95 26.51L153.13 23.30L153.13 23.30Q152.61 22.38 150.57 19.95L150.57 19.95L150.57 19.95Q152.94 19.16 154.68 19.16L154.68 19.16L154.68 19.16Q156.42 19.16 157.57 19.42L157.57 19.42L157.57 19.42Q158.71 19.69 159.60 20.31L159.60 20.31L159.60 20.31Q160.49 20.93 161.18 21.59L161.18 21.59L161.18 21.59Q161.86 22.25 162.46 23.53L162.46 23.53L162.46 23.53Q163.05 24.81 163.44 25.82L163.44 25.82L163.44 25.82Q163.83 26.84 164.33 28.68L164.33 28.68L164.33 28.68Q164.82 30.52 165.11 31.86L165.11 31.86L165.11 31.86Q165.41 33.21 165.90 35.60L165.90 35.60L165.90 35.60Q166.39 38.00 166.92 40.23L166.92 40.23L166.92 40.23Q167.44 42.46 168.76 48.73L168.76 48.73L168.76 48.73Q170.07 55.00 170.82 58.12L170.82 58.12L170.82 58.12Q171.58 61.24 172.99 65.11L172.99 65.11L172.99 65.11Q174.40 68.98 175.98 71.21L175.98 71.21L175.98 71.21Q172.17 73.05 169.81 73.05L169.81 73.05L169.81 73.05Q167.44 73.05 166.33 71.84L166.33 71.84L166.33 71.84Q165.21 70.62 164.42 68.16L164.42 68.16L164.42 68.16Q163.64 65.70 161.34 54.93L161.34 54.93L161.34 54.93Q159.83 56.25 156.42 56.38L156.42 56.38L145.19 56.77L145.19 56.77Q141.19 66.55 139.28 74.17L139.28 74.17L139.28 74.17Q132.98 71.93 132.98 69.11ZM156.15 32.03L156.15 32.03L156.15 32.03Q155.23 34.13 152.12 40.99L152.12 40.99L152.12 40.99Q149.00 47.85 147.29 51.91L147.29 51.91L160.75 51.91L160.75 51.91Q157.66 37.74 156.15 32.03ZM193.90 22.54L193.90 22.54L193.90 22.54Q194.42 23.62 194.52 24.54L194.52 24.54L194.52 24.54Q194.62 25.46 194.62 27.89L194.62 27.89L194.62 27.89Q194.62 30.32 192.98 41.54L192.98 41.54L192.39 45.35L192.39 45.35Q201.25 38.06 207.35 31.21L207.35 31.21L207.35 31.21Q213.46 24.35 215.95 19.55L215.95 19.55L215.95 19.55Q218.12 23.36 218.12 27.00L218.12 27.00L218.12 27.00Q218.12 30.65 214.41 34.45L214.41 34.45L214.41 34.45Q210.70 38.26 203.22 43.78L203.22 43.78L203.22 43.78Q207.81 58.28 213.52 66.22L213.52 66.22L213.52 66.22Q215.95 69.57 219.69 73.51L219.69 73.51L219.69 73.51Q217.26 74.17 214.83 74.17L214.83 74.17L214.83 74.17Q212.41 74.17 209.85 72.66L209.85 72.66L209.85 72.66Q207.29 71.15 205.42 68.98L205.42 68.98L205.42 68.98Q203.54 66.81 201.58 63.20L201.58 63.20L201.58 63.20Q198.75 57.89 195.47 49.22L195.47 49.22L195.47 49.22Q193.63 50.60 191.47 52.05L191.47 52.05L191.47 52.05Q190.29 61.83 190.29 66.85L190.29 66.85L190.29 66.85Q190.29 71.87 191.20 74.03L191.20 74.03L191.20 74.03Q185.63 72.59 183.59 70.19L183.59 70.19L183.59 70.19Q181.56 67.80 181.56 63.53L181.56 63.53L181.56 63.53Q181.56 61.04 182.93 50.86L182.93 50.86L182.93 50.86Q185.36 34.00 185.36 24.74L185.36 24.74L185.36 24.74Q185.36 22.77 185.10 19.36L185.10 19.36L185.10 19.36Q190.09 19.62 192.39 20.93L192.39 20.93L192.39 20.93Q193.37 21.46 193.90 22.54ZM237.94 22.54L237.94 22.54L237.94 22.54Q238.46 23.62 238.56 24.54L238.56 24.54L238.56 24.54Q238.66 25.46 238.66 27.89L238.66 27.89L238.66 27.89Q238.66 30.32 236.50 45.15L236.50 45.15L236.50 45.15Q234.33 59.99 234.33 65.93L234.33 65.93L234.33 65.93Q234.33 71.87 235.25 74.03L235.25 74.03L235.25 74.03Q229.67 72.59 227.63 70.19L227.63 70.19L227.63 70.19Q225.60 67.80 225.60 63.53L225.60 63.53L225.60 63.53Q225.60 61.04 226.98 50.86L226.98 50.86L226.98 50.86Q229.41 34.00 229.41 24.74L229.41 24.74L229.41 24.74Q229.41 22.77 229.14 19.36L229.14 19.36L229.14 19.36Q234.13 19.62 236.43 20.93L236.43 20.93L236.43 20.93Q237.41 21.46 237.94 22.54Z" fill="#1bd77f"/></g><g transform="translate(3,4)translate(108.5,68.5)rotate(0)translate(-108.5,-68.5) scale(3.6166517079913243,3.6166517079913243)" opacity="1"><defs class="defs"/><path transform="translate(-2,-13)" d="M60.041,26.96l1.929,-7.717c0.10448,-0.422 -0.07566,-0.86316 -0.44566,-1.09141c-0.37,-0.22825 -0.84508,-0.19131 -1.17534,0.09141l-6.666,5.714l-20.683,-2.484v-7.473c0,-0.55228 -0.44772,-1 -1,-1c-4.58043,0.00666 -8.4271,3.44848 -8.941,8h-20.059c-0.55228,0 -1,0.44772 -1,1c0,9.954 5.436,18.449 13.018,21.644c0.26101,0.11942 0.52803,0.22523 0.8,0.317c1.87361,0.6868 3.85348,1.0385 5.849,1.039h4.984c1.33741,-0.00684 2.65998,-0.28087 3.89,-0.806l4.65,6.394c0.1882,0.25888 0.48894,0.41204 0.809,0.412c0.28244,-0.00028 0.5516,-0.11999 0.74096,-0.32955c0.18937,-0.20956 0.28128,-0.48943 0.25304,-0.77045l-0.907,-8.719l17.972,-10.068l6.547,2.806c0.1244,0.0537 0.2585,0.08127 0.394,0.081c0.32144,0.00008 0.62333,-0.15437 0.81134,-0.41509c0.18801,-0.26072 0.23923,-0.59593 0.13766,-0.90091zM31,15.071v6.162l-1.881,-0.226c-0.03948,-0.00485 -0.07923,-0.00719 -0.119,-0.007h-3.921c0.44566,-3.06809 2.85351,-5.4792 5.921,-5.929zM15.63,41.713c-1.50484,-0.73341 -2.91654,-1.64422 -4.205,-2.713h8.454l-3.965,2.833c-0.095,-0.039 -0.19,-0.079 -0.284,-0.12zM29.964,40h3.992l0.076,0.734v0l0.589,5.665zM53,29.414l-17.137,9.6l-0.011,-0.114c-0.05136,-0.51099 -0.48143,-0.90001 -0.995,-0.9h-6.857c-0.37611,-0.00005 -0.72044,0.21094 -0.89117,0.54607c-0.17073,0.33513 -0.13898,0.73771 0.08217,1.04193l2.143,2.946c-0.86139,0.30653 -1.7687,0.46412 -2.683,0.466h-4.984c-1.14464,-0.00049 -2.28544,-0.13235 -3.4,-0.393l5.311,-3.793c0.3535,-0.25225 0.50378,-0.70382 0.37194,-1.1176c-0.13184,-0.41378 -0.51567,-0.69516 -0.94994,-0.6964h-13.675c-3.28725,-3.93993 -5.15397,-8.8709 -5.3,-14h24.915l24.06,2.887zM55,29.341v-3.881l4.269,-3.66l-1.239,4.957c-0.04632,0.18454 -0.03904,0.37846 0.021,0.559l1.3,3.888zM19,31v-2h2v2zM26,30c-0.55228,0 -1,0.44772 -1,1v2c0,0.55228 0.44772,1 1,1c0.55228,0 1,-0.44772 1,-1v-2c0,-0.55228 -0.44772,-1 -1,-1zM30,36c0.55228,0 1,-0.44772 1,-1v-5c0,-0.55228 -0.44772,-1 -1,-1c-0.55228,0 -1,0.44772 -1,1v5c0,0.55228 0.44772,1 1,1zM34,36c0.55228,0 1,-0.44772 1,-1v-5c0,-0.55228 -0.44772,-1 -1,-1c-0.55228,0 -1,0.44772 -1,1v5c0,0.55228 0.44772,1 1,1z" fill="#1bd77f" class="fill c1"/></g></svg>